<?xml version="1.0" encoding="UTF-8"?>
<svg width="87px" height="39px" viewBox="0 0 87 39" version="1.1" xmlns="http://www.w3.org/2000/svg" xmlns:xlink="http://www.w3.org/1999/xlink">
    <!-- Generator: Sketch 56 (81588) - https://sketch.com -->
    <title>mendix_logo_white</title>
    <desc>Created with Sketch.</desc>
    <g id="Page-1" stroke="none" stroke-width="1" fill="none" fill-rule="evenodd">
        <g id="mendix_logo_white" fill="#FFFFFF" fill-rule="nonzero">
            <path d="M33.09,2.84217094e-14 L5.09,2.84217094e-14 C2.28115285,0.00550216499 0.00550216499,2.28115285 2.84217094e-14,5.09 L2.84217094e-14,33.09 C0.00550216499,35.8988471 2.28115285,38.1744978 5.09,38.18 L33.09,38.18 C34.4399519,38.18 35.7346133,37.6437337 36.6891735,36.6891735 C37.6437337,35.7346133 38.18,34.4399519 38.18,33.09 L38.18,5.09 C38.1744978,2.28115285 35.8988471,0.00550216499 33.09,2.84217094e-14 L33.09,2.84217094e-14 Z M34.09,26 L30,26 L28.45,22.88 L26.94,26 L19.09,26 L19.09,16.08 C19.062833,15.2467712 18.3735944,14.5886596 17.54,14.6 C16.7081469,14.5887674 16.021817,15.2483572 16,16.08 L16,26 L11.92,26 L11.92,16.06 C11.8877494,15.2274772 11.203147,14.5693756 10.37,14.57 C9.96684842,14.5619645 9.57702464,14.7144502 9.28632589,14.9938961 C8.99562715,15.273342 8.82787845,15.6568453 8.82,16.06 L8.82,26 L4.72,26 L4.72,12.18 L8.82,12.18 L8.82,13.79 L8.89,13.79 C9.23594603,13.2377839 9.73674871,12.7995815 10.33,12.53 C10.9681477,12.2864994 11.6470846,12.1676855 12.33,12.18 C13.0051275,12.1671272 13.6725263,12.3253764 14.27,12.64 C14.818652,12.9227513 15.2814023,13.3475147 15.61,13.87 C16.0488173,13.3314425 16.6022606,12.8975703 17.23,12.6 C18.3678957,12.1234807 19.6343063,12.049401 20.82,12.39 C21.2450219,12.5250852 21.6440246,12.7313494 22,13 C22.3247528,13.2428485 22.5969008,13.549015 22.8,13.9 C23.0401249,14.3395748 23.1737081,14.8293799 23.19,15.33 L23.19,25.33 L26.37,19.08 L22.86,12.17 L26.96,12.17 L28.51,15.29 L30,12.18 L34.1,12.18 L30.59,19.09 L34.09,26 Z" id="Shape"></path>
            <path d="M50.3857422,24.6474609 C50.643556,24.6474609 50.8925769,24.6284182 51.1328125,24.590332 C51.3730481,24.5522459 51.5634759,24.5126955 51.7041016,24.4716797 L51.7041016,25.5878906 C51.5458976,25.6640629 51.3129898,25.7270505 51.0053711,25.7768555 C50.6977524,25.8266604 50.4208997,25.8515625 50.1748047,25.8515625 C48.3115141,25.8515625 47.3798828,24.870127 47.3798828,22.9072266 L47.3798828,17.1767578 L46,17.1767578 L46,16.4736328 L47.3798828,15.8671875 L47.9951172,13.8105469 L48.8388672,13.8105469 L48.8388672,16.0429688 L51.6337891,16.0429688 L51.6337891,17.1767578 L48.8388672,17.1767578 L48.8388672,22.8457031 C48.8388672,23.4257842 48.9765611,23.8710922 49.2519531,24.1816406 C49.5273451,24.4921891 49.905271,24.6474609 50.3857422,24.6474609 Z M59.1670202,25.6757812 L58.8769812,24.3046875 L58.8066687,24.3046875 C58.3261975,24.9082061 57.8471984,25.3168935 57.369657,25.5307617 C56.8921155,25.74463 56.2959301,25.8515625 55.5810827,25.8515625 C54.6259998,25.8515625 53.8774722,25.6054712 53.3354773,25.1132812 C52.7934824,24.6210913 52.522489,23.920903 52.522489,23.0126953 C52.522489,21.0673731 54.0781375,20.047852 57.1894812,19.9541016 L58.8242468,19.9013672 L58.8242468,19.3037109 C58.8242468,18.5478478 58.6616508,17.9897479 58.3364538,17.6293945 C58.0112569,17.2690412 57.4912426,17.0888672 56.7763952,17.0888672 C55.9736569,17.0888672 55.0654628,17.3349585 54.0517859,17.8271484 L53.6035437,16.7109375 C54.0781554,16.4531237 54.5981698,16.2509773 55.1636023,16.1044922 C55.7290348,15.9580071 56.2959237,15.8847656 56.8642859,15.8847656 C58.0127291,15.8847656 58.8637948,16.1396459 59.4175085,16.6494141 C59.9712222,17.1591822 60.2480749,17.9765569 60.2480749,19.1015625 L60.2480749,25.6757812 L59.1670202,25.6757812 Z M55.8711218,24.6474609 C56.7793295,24.6474609 57.4927013,24.39844 58.0112585,23.9003906 C58.5298158,23.4023413 58.7890906,22.7050826 58.7890906,21.8085938 L58.7890906,20.9384766 L57.3301062,21 C56.1699441,21.0410158 55.3335267,21.2211898 54.8208288,21.5405273 C54.308131,21.8598649 54.0517859,22.3564419 54.0517859,23.0302734 C54.0517859,23.5576198 54.2114522,23.958983 54.5307898,24.234375 C54.8501273,24.509767 55.2969002,24.6474609 55.8711218,24.6474609 Z M69.0820874,23.0478516 C69.0820874,23.9443404 68.7481063,24.6357398 68.0801343,25.1220703 C67.4121622,25.6084009 66.4746715,25.8515625 65.2676343,25.8515625 C63.9902841,25.8515625 62.9942003,25.6494161 62.279353,25.2451172 L62.279353,23.8916016 C62.7422459,24.1259777 63.238823,24.3105462 63.7690991,24.4453125 C64.2993752,24.5800788 64.8106005,24.6474609 65.3027905,24.6474609 C66.0645131,24.6474609 66.6504447,24.5258801 67.060603,24.2827148 C67.4707613,24.0395496 67.6758374,23.6689478 67.6758374,23.1708984 C67.6758374,22.7958966 67.5132413,22.475099 67.1880444,22.2084961 C66.8628475,21.9418932 66.2285765,21.6269549 65.2852124,21.2636719 C64.3887235,20.9296858 63.7515229,20.6381848 63.3735913,20.3891602 C62.9956597,20.1401355 62.7144125,19.8574235 62.5298413,19.5410156 C62.34527,19.2246078 62.2529858,18.8466819 62.2529858,18.4072266 C62.2529858,17.6220664 62.5723186,17.0024437 63.2109936,16.5483398 C63.8496687,16.094236 64.7256365,15.8671875 65.8389233,15.8671875 C66.8760379,15.8671875 67.8896996,16.0781229 68.8799389,16.5 L68.3613843,17.6865234 C67.3945825,17.2880839 66.5186147,17.0888672 65.7334546,17.0888672 C65.0420449,17.0888672 64.5205657,17.1972645 64.1690014,17.4140625 C63.8174372,17.6308605 63.6416577,17.9296856 63.6416577,18.3105469 C63.6416577,18.5683607 63.707575,18.788085 63.8394116,18.9697266 C63.9712482,19.1513681 64.1836484,19.3242179 64.4766186,19.4882812 C64.7695888,19.6523446 65.3320832,19.8896469 66.1641186,20.2001953 C67.3067025,20.616213 68.0786674,21.0351541 68.4800366,21.4570312 C68.8814058,21.8789084 69.0820874,22.4091765 69.0820874,23.0478516 Z M72.5108264,20.7451172 C72.7627808,20.3876935 73.146566,19.9189482 73.6621936,19.3388672 L76.7735217,16.0429688 L78.504967,16.0429688 L74.6026232,20.1474609 L78.7774279,25.6757812 L77.0108264,25.6757812 L73.6094592,21.1230469 L72.5108264,22.0722656 L72.5108264,25.6757812 L71.0694201,25.6757812 L71.0694201,12 L72.5108264,12 L72.5108264,19.2509766 C72.5108264,19.5732438 72.4873891,20.0712857 72.4405139,20.7451172 L72.5108264,20.7451172 Z M86.3458154,23.0478516 C86.3458154,23.9443404 86.0118343,24.6357398 85.3438623,25.1220703 C84.6758902,25.6084009 83.7383995,25.8515625 82.5313623,25.8515625 C81.2540121,25.8515625 80.2579283,25.6494161 79.543081,25.2451172 L79.543081,23.8916016 C80.0059739,24.1259777 80.502551,24.3105462 81.0328271,24.4453125 C81.5631032,24.5800788 82.0743285,24.6474609 82.5665185,24.6474609 C83.3282411,24.6474609 83.9141727,24.5258801 84.324331,24.2827148 C84.7344893,24.0395496 84.9395654,23.6689478 84.9395654,23.1708984 C84.9395654,22.7958966 84.7769693,22.475099 84.4517724,22.2084961 C84.1265755,21.9418932 83.4923045,21.6269549 82.5489404,21.2636719 C81.6524515,20.9296858 81.0152509,20.6381848 80.6373193,20.3891602 C80.2593877,20.1401355 79.9781405,19.8574235 79.7935693,19.5410156 C79.608998,19.2246078 79.5167138,18.8466819 79.5167138,18.4072266 C79.5167138,17.6220664 79.8360466,17.0024437 80.4747216,16.5483398 C81.1133967,16.094236 81.9893645,15.8671875 83.1026513,15.8671875 C84.1397659,15.8671875 85.1534276,16.0781229 86.1436669,16.5 L85.6251123,17.6865234 C84.6583105,17.2880839 83.7823427,17.0888672 82.9971826,17.0888672 C82.3057729,17.0888672 81.7842937,17.1972645 81.4327294,17.4140625 C81.0811652,17.6308605 80.9053857,17.9296856 80.9053857,18.3105469 C80.9053857,18.5683607 80.971303,18.788085 81.1031396,18.9697266 C81.2349762,19.1513681 81.4473764,19.3242179 81.7403466,19.4882812 C82.0333168,19.6523446 82.5958112,19.8896469 83.4278466,20.2001953 C84.5704305,20.616213 85.3423954,21.0351541 85.7437646,21.4570312 C86.1451338,21.8789084 86.3458154,22.4091765 86.3458154,23.0478516 Z" id="tasks"></path>
        </g>
    </g>
</svg>